<svg width="64" height="64" viewBox="0 0 64 64" fill="none" xmlns="http://www.w3.org/2000/svg">
  <defs>
    <linearGradient id="weaz-favicon-bg" x1="0" y1="0" x2="64" y2="64" gradientUnits="userSpaceOnUse">
      <stop offset="0" stop-color="#16233f"/>
      <stop offset="1" stop-color="#4b5670"/>
    </linearGradient>
    <linearGradient id="weaz-favicon-gold" x1="20" y1="7" x2="45" y2="58" gradientUnits="userSpaceOnUse">
      <stop offset="0" stop-color="#fff1a8"/>
      <stop offset=".42" stop-color="#d8b24a"/>
      <stop offset=".72" stop-color="#f8dc78"/>
      <stop offset="1" stop-color="#9f6419"/>
    </linearGradient>
  </defs>
  <rect width="64" height="64" rx="14" fill="url(#weaz-favicon-bg)"/>
  <path d="M34.5 9.5c4.2 0 7.4 3.3 7.4 7.4s-3.2 7.5-7.4 7.5-7.5-3.3-7.5-7.5 3.3-7.4 7.5-7.4Z" fill="url(#weaz-favicon-gold)"/>
  <path d="M27.8 25.4 37 36.1l-2.3 15.4c-.7 4.5-.1 8.9 1.8 13.1l1.7 3.8c-6.7-7.3-10.1-15-10-23.1l-8.4 1.1 7.7-21Z" fill="url(#weaz-favicon-gold)" transform="translate(0 -5) scale(1 0.92)"/>
  <path d="M37.4 24.8 48 38.2l-3.2 13.9H31.7l2.4-15.7 3.3-11.6Z" fill="url(#weaz-favicon-gold)" transform="translate(0 -4.5) scale(1 0.93)"/>
</svg>
